<svg id="ed1tTS8HjbO1" fill="#FFF" xmlns="http://www.w3.org/2000/svg" xmlns:xlink="http://www.w3.org/1999/xlink" viewBox="0 0 70 93.5" shape-rendering="geometricPrecision" text-rendering="geometricPrecision"><g transform="translate(-15.383003-3.209116)"><path d="M66.108,24.235c.332-.803.218-1.672.117-2.163-.617-3.042-1.73-3.695-2.393-7.983l-.057.038c-.972-5.625-5.454-10.043-11.112-10.91-.483-.041-.97.056-.97.82c0,.022,0,.036-.001.055v5.429c0,.679-.39,1.23-1.068,1.23-.679,0-1.069-.551-1.069-1.23v-5.591c-.077-.678-.556-.762-1.049-.692c0,0-.001-.005-.001-.007-5.981.954-10.635,5.876-11.181,11.984-.668,3.299-1.632,4.105-2.191,6.856-.099.49-.214,1.358.116,2.161.536.639,2.021,1.714,2.021,1.714c2.919,1.954,8.112,3.015,13.411,3.015c6.13,0,10.202-1.074,13.298-2.94c1.077-.649,1.619-1.238,2.129-1.786Z"/><path d="M66.944,59.909c-1.009,0-1.999.085-2.965.24v-29.341c-3.295,1.523-7.617,2.428-13.298,2.428-5.746,0-10.104-.923-13.411-2.476v29.446c-1.064-.191-2.156-.296-3.275-.296-10.185,0-18.44,8.256-18.44,18.44s8.255,18.44,18.44,18.44c5.625,0,10.659-2.521,14.042-6.494c0,.001.003.003.003.003.022-.032.047-.058.072-.09.069-.081.137-.163.204-.246c1.277-1.404,3.001-1.442,4.285-.028.079.096.156.19.235.285.021.027.043.05.063.079.066.091.13.157.19.213c3.379,3.847,8.331,6.278,13.854,6.278c10.185,0,18.44-8.256,18.44-18.44s-8.254-18.441-18.439-18.441Z"/></g></svg>
